<?xml version="1.0" encoding="UTF-8" standalone="no"?>
<svg
   xmlns:dc="http://purl.org/dc/elements/1.1/"
   xmlns:cc="http://creativecommons.org/ns#"
   xmlns:rdf="http://www.w3.org/1999/02/22-rdf-syntax-ns#"
   xmlns:svg="http://www.w3.org/2000/svg"
   xmlns="http://www.w3.org/2000/svg"
   xmlns:sodipodi="http://sodipodi.sourceforge.net/DTD/sodipodi-0.dtd"
   xmlns:inkscape="http://www.inkscape.org/namespaces/inkscape"
   version="1.1"
   id="Layer_1"
   x="0px"
   y="0px"
   viewBox="0 0 1302.6821 858.21771"
   xml:space="preserve"
   sodipodi:docname="factory-pollution-svgrepo-com.svg"
   width="1302.6821"
   height="858.21771"
   inkscape:version="1.0.2 (e86c870879, 2021-01-15)"><metadata
   id="metadata51"><rdf:RDF><cc:Work
       rdf:about=""><dc:format>image/svg+xml</dc:format><dc:type
         rdf:resource="http://purl.org/dc/dcmitype/StillImage" /><dc:title></dc:title></cc:Work></rdf:RDF></metadata><defs
   id="defs49" /><sodipodi:namedview
   pagecolor="#ffffff"
   bordercolor="#666666"
   borderopacity="1"
   objecttolerance="10"
   gridtolerance="10"
   guidetolerance="10"
   inkscape:pageopacity="0"
   inkscape:pageshadow="2"
   inkscape:window-width="960"
   inkscape:window-height="1017"
   id="namedview47"
   showgrid="false"
   fit-margin-top="0"
   fit-margin-left="0"
   fit-margin-right="0"
   fit-margin-bottom="0"
   inkscape:zoom="0.43648413"
   inkscape:cx="662.11982"
   inkscape:cy="301.85612"
   inkscape:window-x="0"
   inkscape:window-y="26"
   inkscape:window-maximized="0"
   inkscape:current-layer="Layer_1" />
<g
   transform="translate(697.80631,161.17295)"
   id="g12">
	<path
   style="fill:#50dd8e"
   d="m 243.053,209.773 v 34.133 h -153.6 v -51.2 h 153.6 z m 187.734,-51.2 v 51.2 H 243.053 v -17.067 -34.133 z"
   id="path2" />
	<g
   id="g10">
		<path
   style="fill:#ff7474"
   d="m 383.853,24.6 c 8.533,-4.267 18.773,-1.707 23.04,5.973 5.12,8.533 1.707,18.773 -5.973,23.04 -2.56,1.707 -5.12,2.56 -8.533,2.56 v 0 0 c 2.56,0 5.973,0.853 8.533,2.56 8.533,5.12 11.093,15.36 5.973,23.04 -5.12,8.533 -15.36,11.093 -23.04,5.973 -2.56,-1.707 -4.267,-3.413 -5.973,-5.973 v 0 c 1.707,2.56 2.56,5.12 2.56,8.533 0,9.387 -7.68,17.067 -17.067,17.067 -9.387,0 -17.067,-7.68 -17.067,-17.067 0,-3.413 0.853,-5.973 2.56,-8.533 v 0 c -1.707,2.56 -3.413,4.267 -5.973,5.973 -8.533,4.267 -18.773,1.707 -23.04,-5.973 -5.12,-8.533 -1.707,-18.773 5.973,-23.04 2.56,-1.707 5.12,-2.56 8.533,-2.56 v 0 0 c -2.56,0 -5.973,-0.853 -8.533,-2.56 -8.533,-5.12 -11.093,-15.36 -5.973,-23.04 5.12,-8.533 15.36,-11.093 23.04,-5.973 2.56,1.707 4.267,3.413 5.973,5.973 v 0 c -1.707,-2.56 -2.56,-5.12 -2.56,-8.533 0,-9.387 7.68,-17.067 17.067,-17.067 9.387,0 17.067,7.68 17.067,17.067 0,3.413 -0.853,5.973 -2.56,8.533 v 0 c 0.853,-2.559 3.413,-4.266 5.973,-5.973 z M 185.027,98.84 c -5.12,8.533 -15.36,11.093 -23.04,5.973 -2.56,-1.707 -4.267,-3.413 -5.973,-5.973 v 0 c 1.707,2.56 2.56,5.12 2.56,8.533 0,9.387 -7.68,17.067 -17.067,17.067 -9.387,0 -17.067,-7.68 -17.067,-17.067 0,-3.413 0.853,-5.973 2.56,-8.533 v 0 c -1.707,2.56 -3.413,4.267 -5.973,5.973 -8.533,4.267 -18.773,1.707 -23.04,-5.973 -4.267,-8.533 -1.707,-18.773 5.973,-23.04 2.56,-1.707 5.12,-2.56 8.533,-2.56 v 0 0 c -2.56,0 -5.973,-0.853 -8.533,-2.56 -8.533,-5.12 -11.093,-15.36 -5.973,-23.04 5.12,-8.533 15.36,-11.093 23.04,-5.973 2.56,1.707 4.267,3.413 5.973,5.973 v 0 c -1.707,-2.56 -2.56,-5.12 -2.56,-8.533 0,-9.387 7.68,-17.067 17.067,-17.067 9.387,0 17.067,7.68 17.067,17.067 0,3.413 -0.853,5.973 -2.56,8.533 v 0 c 1.707,-2.56 3.413,-4.267 5.973,-5.973 8.533,-4.267 18.773,-1.707 23.04,5.973 5.12,8.533 1.707,18.773 -5.973,23.04 -2.56,1.707 -5.12,2.56 -8.533,2.56 v 0 0 c 2.56,0 5.973,0.853 8.533,2.56 7.679,4.267 11.093,14.507 5.973,23.04 z"
   id="path4" />
		<path
   style="fill:#50dd8e"
   d="m 277.187,98.84 v 25.6 h -25.6 c -14.507,0 -25.6,-11.093 -25.6,-25.6 v -25.6 h 25.6 c 14.506,0 25.6,11.093 25.6,25.6 z M 499.053,39.107 v 25.6 c 0,14.507 -11.093,25.6 -25.6,25.6 h -25.6 v -25.6 c 0,-14.507 11.093,-25.6 25.6,-25.6 z m -443.733,76.8 v 25.6 h -25.6 c -14.507,0 -25.6,-11.093 -25.6,-25.6 v -25.6 h 25.6 c 14.507,0 25.6,11.093 25.6,25.6 z"
   id="path6" />
		<path
   style="fill:#e4f2de"
   d="m 89.453,243.907 h 153.6 c 0,136.533 -25.6,221.867 -25.6,221.867 0,0 -3.413,21.333 -17.067,34.133 H 157.72 21.187 c 16.213,-11.093 25.6,-34.133 25.6,-34.133 0,0 42.667,-84.48 42.667,-187.733 v -34.134 z m 384,256 h -145.066 -17.067 -34.133 -76.8 c 13.653,-12.8 17.067,-34.133 17.067,-34.133 0,0 25.6,-85.333 25.6,-221.867 v -34.133 h 187.733 v 34.133 c 0,136.533 25.6,221.867 25.6,221.867 0,0 5.12,19.626 17.066,34.133 z"
   id="path8" />
	</g>
</g>
<path
   style="fill:#51565f"
   d="m 1196.8593,665.34595 h -136.533 c -2.56,0 -4.267,-1.707 -4.267,-4.267 0,-2.56 1.707,-4.267 4.267,-4.267 h 136.533 c 2.56,0 4.267,1.707 4.267,4.267 0,2.56 -1.707,4.267 -4.267,4.267 z m -170.666,0 h -17.067 c -2.56,0 -4.267,-1.707 -4.267,-4.267 0,-2.56 1.707,-4.267 4.267,-4.267 h 17.067 c 2.56,0 4.267,1.707 4.267,4.267 0,2.56 -1.707,4.267 -4.267,4.267 z m -51.19999,0 h -119.467 c -2.56,0 -4.267,-1.707 -4.267,-4.267 0,-2.56 1.707,-4.267 4.267,-4.267 h 119.467 c 2.56,0 4.267,1.707 4.267,4.267 0,2.56 -1.707,4.267 -4.267,4.267 z m -153.6,0 h -119.467 c -2.56,0 -4.267,-1.707 -4.267,-4.267 0,-2.56 1.707,-4.267 4.267,-4.267 h 119.467 c 2.56,0 4.267,1.707 4.267,4.267 0,2.56 -1.707,4.267 -4.267,4.267 z m 332.79999,-34.133 c -1.707,0 -3.413,-0.853 -4.267,-3.413 0,-0.853 -25.6,-87.893 -25.6,-222.72 v -81.067 H 945.12631 v 42.667 h 149.33299 c 2.56,0 4.267,1.707 4.267,4.267 0,2.56 -1.707,4.267 -4.267,4.267 H 940.85931 c -2.56,0 -4.267,-1.707 -4.267,-4.267 v -51.2 c 0,-2.56 1.707,-4.267 4.267,-4.267 h 187.73299 c 2.56,0 4.267,1.707 4.267,4.267 v 85.333 c 0,133.973 24.747,220.16 25.6,221.013 0.853,2.56 -0.853,4.267 -2.56,5.12 -0.853,0 -1.706,0 -1.706,0 z m -238.93399,0 h -0.853 c -2.56,-0.853 -3.413,-3.413 -2.56,-5.12 0,-0.853 24.747,-84.48 25.6,-216.747 h -150.187 c -2.56,0 -4.267,-1.707 -4.267,-4.267 v -51.2 c 0,-2.56 1.707,-4.267 4.267,-4.267 h 119.467 c 2.56,0 4.267,1.707 4.267,4.267 0,2.56 -1.707,4.267 -4.267,4.267 h -115.2 v 42.667 h 149.333 c 2.56,0 4.267,1.707 4.267,4.267 0,135.68 -25.6,221.867 -25.6,222.72 -0.853,2.56 -2.56,3.413 -4.267,3.413 z m -170.666,0 c -0.853,0 -1.707,0 -1.707,-0.853 -1.707,-0.853 -2.56,-3.413 -1.707,-5.973 0,-0.853 41.813,-85.333 41.813,-186.027 0,-2.56 1.707,-4.267 4.267,-4.267 2.56,0 4.267,1.707 4.267,4.267 0,103.253 -42.667,188.587 -43.52,189.44 0,2.56 -1.707,3.413 -3.413,3.413 z m 8.533,-324.267 h -25.6 c -16.213,0 -29.867,-13.653 -29.867,-29.867 v -25.6 c 0,-2.56 1.707,-4.267 4.267,-4.267 h 25.6 c 16.213,0 29.867,13.653 29.867,29.867 v 25.6 c 0,2.561 -1.707,4.267 -4.267,4.267 z m -46.933,-51.2 v 21.333 c 0,11.947 9.387,21.333 21.333,21.333 h 21.333 v -21.333 c 0,-11.947 -9.387,-21.333 -21.333,-21.333 h -21.333 z m 268.8,34.134 h -25.6 c -16.213,0 -29.867,-13.653 -29.867,-29.867 v -25.6 c 0,-2.56 1.707,-4.267 4.267,-4.267 h 25.6 c 16.213,0 29.867,13.653 29.867,29.867 v 25.6 c -10e-4,2.56 -1.707,4.267 -4.267,4.267 z m -46.934,-51.2 v 21.333 c 0,11.947 9.387,21.333 21.333,21.333 h 21.333 v -21.333 c 0,-11.947 -9.387,-21.333 -21.333,-21.333 z m -89.6,51.2 c -11.093,0 -19.627,-8.533 -21.333,-18.773 -4.267,1.707 -9.387,2.56 -13.653,0.853 -5.12,-1.707 -10.24,-5.12 -12.8,-10.24 -2.56,-5.12 -3.413,-11.093 -2.56,-16.213 0.853,-4.267 4.267,-8.533 7.68,-11.947 -3.413,-2.56 -6.827,-6.827 -7.68,-11.947 -1.707,-5.12 -0.853,-11.093 2.56,-16.213 2.56,-5.12 7.68,-8.533 12.8,-10.24 4.267,-0.853 9.387,-0.853 13.653,0.853 0.853,-10.24 10.24,-18.773 21.333,-18.773 11.093,0 19.627,8.533 21.334,18.773 4.267,-1.707 9.387,-2.56 13.653,-0.853 5.12,1.707 10.24,5.12 12.8,10.24 2.56,5.12 3.413,11.093 2.56,16.213 -0.853,4.267 -4.267,8.533 -7.68,11.947 3.413,2.56 6.827,6.827 7.68,11.947 1.707,5.12 0.853,11.093 -2.56,16.213 -2.56,5.12 -7.68,8.533 -12.8,10.24 -4.267,0.853 -9.387,0.853 -13.653,-0.853 -1.707,10.239 -10.24,18.773 -21.334,18.773 z m -15.36,-34.134 c 0.853,0 1.707,0 2.56,0.853 1.707,0.853 2.56,3.413 1.707,5.973 -0.853,1.707 -1.707,4.267 -1.707,5.973 0,6.827 5.973,12.8 12.8,12.8 6.827,0 12.8,-5.973 12.8,-12.8 0,-1.707 -0.853,-4.267 -1.707,-5.973 -0.853,-0.853 -0.853,-2.56 0,-3.413 0,-0.853 0.853,-1.707 1.707,-2.56 1.707,-0.853 4.267,-0.853 5.973,1.707 0.853,1.707 2.56,3.413 4.267,4.267 2.56,1.707 6.827,2.56 9.387,1.707 3.413,-0.853 5.973,-3.413 7.68,-5.973 1.707,-2.56 2.56,-6.827 1.707,-9.387 -0.853,-3.413 -3.413,-5.973 -5.973,-7.68 v 0 c -1.707,-0.853 -4.267,-1.707 -5.973,-1.707 -2.56,0 -4.267,-1.707 -4.267,-4.267 0,-2.56 1.707,-4.267 4.267,-4.267 2.56,0 4.267,-0.853 5.973,-1.707 2.56,-1.707 5.12,-4.267 5.973,-7.68 0.853,-3.413 0.853,-6.827 -1.707,-9.387 -1.707,-2.56 -4.267,-5.12 -7.68,-5.973 -3.413,-0.853 -6.827,-0.853 -9.387,0.853 -1.707,0.853 -3.413,2.56 -4.267,4.267 -0.853,0.853 -1.707,1.707 -2.56,1.707 -0.853,0 -2.56,0 -3.413,-0.853 -1.707,-0.853 -2.56,-3.413 -1.707,-5.973 0.853,-1.707 1.707,-4.267 1.707,-5.973 0,-6.827 -5.973,-12.8 -12.8,-12.8 -6.827,0 -12.8,5.973 -12.8,12.8 0,1.707 0.853,4.267 1.707,5.973 0.853,0.853 0.853,2.56 0,3.413 0,0.853 -0.853,1.707 -1.707,2.56 -0.853,0.853 -1.707,0.853 -3.413,0.853 -0.853,0 -1.707,-0.853 -2.56,-2.56 -0.853,-1.707 -2.56,-3.413 -4.267,-4.267 -2.56,-1.707 -6.827,-2.56 -9.387,-1.707 -3.413,0.853 -5.973,3.413 -7.68,5.973 -1.707,2.56 -2.56,6.827 -1.707,9.387 0.853,3.413 3.413,5.973 5.973,7.68 1.707,0.853 4.267,1.707 5.973,1.707 2.56,0 4.267,1.707 4.267,4.267 0,2.56 -1.707,4.267 -4.267,4.267 -2.56,0 -4.267,0.853 -5.973,1.707 -2.56,1.707 -5.12,4.267 -5.973,7.68 -0.853,3.413 -0.853,6.827 0.853,9.387 1.707,2.56 4.267,5.12 7.68,5.973 3.413,0.853 6.827,0.853 9.387,-0.853 1.707,-0.853 3.413,-2.56 4.267,-4.267 0.853,-0.853 1.707,-1.707 2.56,-1.707 1.707,0 1.707,0 1.707,0 z m 237.22699,17.067 c -11.093,0 -19.627,-8.533 -21.333,-18.773 -4.267,1.707 -9.387,2.56 -13.653,0.853 -5.12,-1.707 -10.24,-5.12 -12.8,-10.24 -2.56,-5.12 -3.413,-11.093 -1.707,-16.213 0.853,-4.267 4.267,-8.533 7.68,-11.947 -3.413,-2.56 -6.827,-6.827 -7.68,-11.947 -1.707,-5.12 -0.853,-11.093 2.56,-16.213 2.56,-5.12 7.68,-8.533 12.8,-10.24 4.267,-0.853 9.387,-0.853 13.653,0.853 0.853,-10.24 10.24,-18.773 21.333,-18.773 11.094,0 19.627,8.533 21.334,18.773 4.267,-1.707 9.387,-2.56 13.653,-0.853 5.12,1.707 10.24,5.12 12.8,10.24 2.56,5.12 3.413,11.093 1.707,16.213 -0.853,4.267 -4.267,8.533 -7.68,11.947 3.413,2.56 6.827,6.827 7.68,11.947 1.707,5.12 0.853,11.093 -2.56,16.213 -2.56,5.12 -7.68,8.533 -12.8,10.24 -4.267,0.853 -9.387,0.853 -13.653,-0.853 -1.707,10.24 -10.241,18.773 -21.334,18.773 z m -15.36,-34.133 c 0.853,0 1.707,0 2.56,0.853 1.707,0.853 2.56,3.413 1.707,5.973 -0.853,1.707 -1.707,4.267 -1.707,5.973 0,6.827 5.973,12.8 12.8,12.8 6.827,0 12.8,-5.973 12.8,-12.8 0,-1.707 -0.853,-4.267 -1.707,-5.973 -0.853,-1.707 -0.853,-4.267 1.707,-5.973 0.853,-0.853 2.56,-0.853 3.413,-0.853 0.853,0 1.707,0.853 2.56,1.707 0.853,1.707 2.56,3.413 4.267,4.267 2.56,1.707 5.973,2.56 9.387,0.853 3.413,-0.853 5.973,-3.413 7.68,-5.973 1.707,-2.56 2.56,-6.827 1.707,-9.387 -0.853,-3.413 -3.413,-5.973 -5.973,-7.68 v 0 c -1.707,-0.853 -4.267,-1.707 -5.973,-1.707 -2.56,0 -4.267,-1.707 -4.267,-4.267 0,-2.56 1.707,-4.267 4.267,-4.267 2.56,0 4.267,-0.853 5.973,-1.707 2.56,-1.707 5.12,-4.267 5.973,-7.68 0.853,-3.413 0.853,-6.827 -0.853,-9.387 -1.707,-2.56 -4.267,-5.12 -7.68,-5.973 -3.413,-0.853 -6.827,-0.853 -9.387,0.853 -1.707,0.853 -3.413,2.56 -4.267,4.267 -0.853,0.853 -1.707,1.707 -2.56,1.707 -0.853,0 -2.56,0 -3.413,-0.853 -1.707,-0.853 -2.56,-3.413 -1.707,-5.973 0.853,-1.707 1.707,-4.267 1.707,-5.973 0,-6.827 -5.973,-12.8 -12.8,-12.8 -6.827,0 -12.8,5.973 -12.8,12.8 0,1.707 0.853,4.267 1.707,5.973 0.853,1.707 0.853,4.267 -1.707,5.973 -0.853,0.853 -1.707,0.853 -3.413,0.853 -0.853,0 -1.707,-0.853 -2.56,-2.56 -0.853,-1.707 -2.56,-3.413 -4.267,-4.267 -2.56,-1.707 -6.827,-2.56 -9.387,-1.707 -3.413,0.853 -5.973,3.413 -7.68,5.973 -1.707,2.56 -2.56,6.827 -1.707,9.387 0.853,3.413 3.413,5.973 5.973,7.68 1.707,0.853 4.267,1.707 5.973,1.707 2.56,0 4.267,1.707 4.267,4.267 0,2.56 -1.707,4.267 -4.267,4.267 -2.56,0 -4.267,0.853 -5.973,1.707 -2.56,1.707 -5.12,4.267 -5.973,7.68 -0.853,3.413 -0.853,6.827 0.853,9.387 1.707,2.56 4.267,5.12 7.68,5.973 3.413,0.853 6.827,0.853 9.387,-0.853 1.707,-0.853 3.413,-2.56 4.267,-4.267 0.853,-0.853 1.707,-1.707 2.56,-1.707 0.853,1.707 0.853,1.707 0.853,1.707 z m 126.293,17.066 h -25.6 c -2.56,0 -4.267,-1.707 -4.267,-4.267 v -25.6 c 0,-16.213 13.653,-29.867 29.867,-29.867 h 25.6 c 2.56,0 4.267,1.707 4.267,4.267 v 25.6 c 0,16.214 -13.653,29.867 -29.867,29.867 z m -21.333,-8.533 h 21.333 c 11.947,0 21.333,-9.387 21.333,-21.333 v -21.334 h -21.333 c -11.947,0 -21.333,9.387 -21.333,21.333 z"
   id="path14" />
<g
   id="g16"
   transform="translate(696.80631,160.17295)">
</g>
<g
   id="g18"
   transform="translate(696.80631,160.17295)">
</g>
<g
   id="g20"
   transform="translate(696.80631,160.17295)">
</g>
<g
   id="g22"
   transform="translate(696.80631,160.17295)">
</g>
<g
   id="g24"
   transform="translate(696.80631,160.17295)">
</g>
<g
   id="g26"
   transform="translate(696.80631,160.17295)">
</g>
<g
   id="g28"
   transform="translate(696.80631,160.17295)">
</g>
<g
   id="g30"
   transform="translate(696.80631,160.17295)">
</g>
<g
   id="g32"
   transform="translate(696.80631,160.17295)">
</g>
<g
   id="g34"
   transform="translate(696.80631,160.17295)">
</g>
<g
   id="g36"
   transform="translate(696.80631,160.17295)">
</g>
<g
   id="g38"
   transform="translate(696.80631,160.17295)">
</g>
<g
   id="g40"
   transform="translate(696.80631,160.17295)">
</g>
<g
   id="g42"
   transform="translate(696.80631,160.17295)">
</g>
<g
   id="g44"
   transform="translate(696.80631,160.17295)">
</g>
<text
   xml:space="preserve"
   style="font-style:normal;font-variant:normal;font-weight:normal;font-stretch:normal;font-size:91.9732px;line-height:1.25;font-family:'Linux Biolinum O';-inkscape-font-specification:'Linux Biolinum O';letter-spacing:0px;word-spacing:0px;fill:#000000;fill-opacity:1;stroke:none;stroke-width:6.89797"
   x="-23.83938"
   y="855.56891"
   id="text934"><tspan
     sodipodi:role="line"
     id="tspan932"
     x="-23.83938"
     y="855.56891"
     style="font-style:normal;font-variant:normal;font-weight:normal;font-stretch:normal;font-size:1324.41px;font-family:'Linux Libertine O';-inkscape-font-specification:'Linux Libertine O';stroke-width:6.89797">Σ</tspan></text><text
   xml:space="preserve"
   style="font-style:normal;font-variant:normal;font-weight:normal;font-stretch:normal;font-size:40.4859px;line-height:1.25;font-family:'Linux Biolinum O';-inkscape-font-specification:'Linux Biolinum O';letter-spacing:0px;word-spacing:0px;fill:#000000;fill-opacity:1;stroke:none;stroke-width:3.03644"
   x="1154.8684"
   y="844.64191"
   id="text934-3"><tspan
     sodipodi:role="line"
     id="tspan932-6"
     x="1154.8684"
     y="844.64191"
     style="font-style:italic;font-variant:normal;font-weight:normal;font-stretch:normal;font-size:497.689px;font-family:'Linux Libertine O';-inkscape-font-specification:'Linux Libertine O';stroke-width:3.03644">i</tspan></text></svg>
